<svg width="20" height="20" viewBox="0 0 20 20" fill="none" xmlns="http://www.w3.org/2000/svg">
<path d="M7.53751 4.73336C8.18347 3.0703 8.50645 2.23877 9.06185 2.23877C9.61725 2.23877 9.94023 3.0703 10.5862 4.73336L10.6163 4.8108C10.9812 5.75035 11.1637 6.22012 11.5356 6.50566C11.9074 6.79119 12.3956 6.83634 13.3719 6.92664L13.5484 6.94297C15.1464 7.09075 15.9453 7.16465 16.1163 7.68959C16.2872 8.21453 15.6939 8.772 14.5072 9.88694L14.1112 10.2591C13.5104 10.8235 13.2101 11.1057 13.0701 11.4755C13.044 11.5445 13.0223 11.6152 13.0051 11.6871C12.9131 12.0727 13.001 12.4821 13.177 13.3009L13.2317 13.5558C13.555 15.0605 13.7166 15.8129 13.4344 16.1374C13.3289 16.2587 13.1919 16.346 13.0396 16.3889C12.6321 16.5037 12.0536 16.0169 10.8966 15.0432C10.1368 14.4039 9.75695 14.0842 9.32081 14.0123C9.14926 13.984 8.97444 13.984 8.80289 14.0123C8.36675 14.0842 7.98687 14.4039 7.22712 15.0432C6.07009 16.0169 5.49157 16.5037 5.08409 16.3889C4.93182 16.346 4.79476 16.2587 4.6893 16.1374C4.40707 15.8129 4.56871 15.0605 4.89199 13.5557L4.94675 13.3009C5.12266 12.4821 5.21061 12.0727 5.11859 11.6871C5.10143 11.6152 5.07972 11.5445 5.0536 11.4755C4.91361 11.1057 4.61325 10.8235 4.01254 10.2591L3.61649 9.88694C2.42982 8.772 1.83648 8.21453 2.00744 7.68959C2.1784 7.16465 2.97735 7.09075 4.57525 6.94297L4.75176 6.92664C5.7281 6.83634 6.21627 6.79119 6.58815 6.50566C6.96003 6.22012 7.14249 5.75035 7.50743 4.8108L7.53751 4.73336Z" fill="#1E88E5" stroke="#1E88E5"/>
</svg>
