<svg width="152" height="26" viewBox="0 0 152 26" fill="none" xmlns="http://www.w3.org/2000/svg">
<path d="M28.3504 0.837747C26.2532 -0.197889 24.0525 -0.0729548 22.5447 0.163762C19.6616 0.614182 19.0113 1.73639 16.7337 1.7616C14.2105 1.79009 13.1736 -0.101448 9.85272 0.037733C9.31027 0.0607471 5.28462 0.573632 2.71547 3.87342C2.32785 4.37097 0.334247 7.0439 0.853203 10.3952C1.15112 12.3207 2.12817 13.4988 4.02994 15.7915C4.68771 16.586 5.28248 17.2282 9.61673 21.0759L9.74487 21.1855C10.4763 20.4184 11.133 19.7707 11.5121 19.3028C12.0375 18.6452 12.4059 18.2255 12.6707 17.4233C12.6707 17.4233 12.8746 17.0529 12.8842 16.1476C12.8909 16.0379 12.8866 15.9277 12.8714 15.8189L12.7155 15.8123C12.6386 15.8123 12.5788 15.8123 12.4689 15.7991C12.2519 15.7718 12.0375 15.7256 11.8282 15.661C11.401 15.5515 10.9558 15.2358 10.5116 14.6857C10.2485 14.3551 10.0852 13.9529 10.0417 13.5284C9.89009 12.4533 10.22 11.4462 11.0028 10.7733C11.5042 10.3441 12.1363 10.1087 12.7892 10.1081C13.395 10.1165 13.9817 10.3273 14.4603 10.7086C14.8847 11.045 15.2069 11.4985 15.3893 12.016C15.4683 12.2418 15.7161 12.9794 15.4523 13.764C15.3373 14.1559 15.1413 14.5177 14.8778 14.8249C14.7955 14.9272 14.7067 15.0239 14.612 15.1142C14.5767 15.1471 14.5052 15.2019 14.4934 15.2139C14.4817 15.226 14.455 15.2435 14.4411 15.2523C14.4335 15.2567 14.4264 15.2618 14.4197 15.2676C14.418 15.2714 14.417 15.2755 14.417 15.2797C14.417 15.2838 14.418 15.288 14.4197 15.2917C14.4197 15.3049 14.4197 15.306 14.4283 15.3378C14.4422 15.4134 14.4486 15.4276 14.4593 15.4813C14.4699 15.535 14.4838 15.603 14.4913 15.6512C14.5159 15.8254 14.5212 15.8912 14.5361 16.0797C14.5516 16.4747 14.5237 16.8703 14.4529 17.2589C14.3947 17.6556 14.2822 18.0419 14.1186 18.4063C13.8916 18.9386 13.5889 19.4335 13.2206 19.8748C12.6867 20.4907 12.8469 20.2891 12.1229 21.1296C11.825 21.476 11.6413 21.7324 11.2142 22.1587C11.1576 22.2146 11.1501 22.2267 11.0497 22.3275C13.6936 24.642 14.4197 25.1155 15.6157 25.396C16.4283 25.5845 18.2286 25.8618 20.14 25.121C21.4684 24.6059 22.2222 24.0503 23.8272 22.4995L23.4887 22.1631C23.0615 21.7368 22.8789 21.4803 22.58 21.134C21.856 20.2935 22.014 20.4951 21.4833 19.8792C21.1142 19.4382 20.8112 18.9433 20.5842 18.4107C20.4196 18.0508 20.3049 17.669 20.2436 17.2764C20.1733 16.8877 20.1454 16.4922 20.1603 16.0972C20.1753 15.9087 20.1806 15.843 20.2062 15.6687C20.2126 15.6205 20.2244 15.5591 20.2372 15.4989C20.25 15.4386 20.2543 15.4309 20.2692 15.3553C20.2746 15.3235 20.2746 15.3224 20.2767 15.3093C20.2785 15.3055 20.2794 15.3014 20.2794 15.2972C20.2794 15.293 20.2785 15.2889 20.2767 15.2852C20.2704 15.2793 20.2637 15.2742 20.2564 15.2698C20.2415 15.261 20.2201 15.2435 20.2041 15.2315C20.1881 15.2194 20.1197 15.1646 20.0856 15.1317C19.9905 15.0414 19.9013 14.9448 19.8186 14.8424C19.5556 14.5349 19.3597 14.1732 19.2441 13.7816C18.9804 12.9969 19.2281 12.2593 19.3071 12.0336C19.4894 11.5157 19.8121 11.0621 20.2372 10.7262C20.7157 10.3447 21.3024 10.1339 21.9083 10.1256C22.5612 10.1265 23.1932 10.3619 23.6948 10.7908C24.4764 11.4637 24.8063 12.4709 24.6558 13.5459C24.6116 13.9704 24.448 14.3725 24.1849 14.7032C23.7407 15.2512 23.2997 15.5646 22.8693 15.6786C22.6599 15.743 22.4456 15.7892 22.2286 15.8167C22.1219 15.8265 22.0589 15.8254 21.982 15.8298L21.8261 15.8364C21.8115 15.9453 21.8072 16.0554 21.8133 16.1652C21.8186 17.0704 22.0215 17.4408 22.0215 17.4408C22.2863 18.243 22.6547 18.6638 23.1811 19.3203C23.5602 19.7795 24.3077 20.5411 25.0349 21.3127C27.9756 18.3932 27.6798 18.8841 29.0733 17.3192C31.0947 15.0506 32.9537 13.0911 33.2784 10.1957C33.6863 6.52991 31.5688 2.4323 28.3504 0.837747Z" fill="#1E88E5"/>
<path d="M150.664 9.45724V25.4808H147.667V9.45724H150.664ZM151.232 4.50506C151.232 4.78894 151.176 5.06231 151.063 5.32517C150.951 5.57751 150.797 5.80356 150.602 6.00333C150.418 6.19259 150.198 6.34504 149.941 6.4607C149.685 6.56584 149.419 6.61841 149.142 6.61841C148.866 6.61841 148.604 6.56584 148.359 6.4607C148.113 6.34504 147.892 6.19259 147.698 6.00333C147.513 5.80356 147.365 5.57751 147.252 5.32517C147.15 5.06231 147.099 4.78894 147.099 4.50506C147.099 4.21066 147.15 3.9373 147.252 3.68496C147.365 3.4221 147.513 3.19605 147.698 3.00679C147.892 2.80702 148.113 2.65456 148.359 2.54942C148.604 2.43377 148.866 2.37594 149.142 2.37594C149.419 2.37594 149.685 2.43377 149.941 2.54942C150.198 2.65456 150.418 2.80702 150.602 3.00679C150.797 3.19605 150.951 3.4221 151.063 3.68496C151.176 3.9373 151.232 4.21066 151.232 4.50506Z" fill="#1E88E5"/>
<path d="M143.378 12.2172C143.296 12.3538 143.209 12.4537 143.116 12.5168C143.024 12.5694 142.906 12.5957 142.763 12.5957C142.599 12.5957 142.415 12.5378 142.21 12.4222C142.015 12.3065 141.774 12.1804 141.487 12.0437C141.211 11.907 140.883 11.7808 140.504 11.6652C140.125 11.5495 139.674 11.4917 139.152 11.4917C138.721 11.4917 138.327 11.5495 137.968 11.6652C137.62 11.7703 137.323 11.9228 137.077 12.1225C136.831 12.3118 136.642 12.5431 136.509 12.8165C136.375 13.0793 136.309 13.3632 136.309 13.6681C136.309 14.0677 136.422 14.3989 136.647 14.6617C136.883 14.9246 137.185 15.1506 137.554 15.3399C137.933 15.5291 138.358 15.7026 138.829 15.8603C139.31 16.0075 139.797 16.1652 140.289 16.3335C140.791 16.5017 141.277 16.6962 141.749 16.917C142.23 17.1273 142.655 17.3954 143.024 17.7213C143.403 18.0368 143.705 18.4205 143.931 18.8726C144.166 19.3247 144.284 19.8767 144.284 20.5286C144.284 21.2751 144.151 21.9691 143.885 22.6104C143.629 23.2413 143.244 23.788 142.732 24.2506C142.23 24.7133 141.605 25.076 140.857 25.3389C140.11 25.6017 139.254 25.7331 138.291 25.7331C137.215 25.7331 136.222 25.5491 135.31 25.1811C134.398 24.8131 133.635 24.3453 133.02 23.7775L133.727 22.5947C133.809 22.4475 133.912 22.3371 134.035 22.2635C134.157 22.1793 134.321 22.1373 134.526 22.1373C134.721 22.1373 134.921 22.2109 135.126 22.3581C135.33 22.5053 135.576 22.6683 135.863 22.847C136.15 23.0152 136.498 23.1729 136.908 23.3201C137.318 23.4568 137.83 23.5252 138.445 23.5252C138.957 23.5252 139.403 23.4621 139.782 23.3359C140.161 23.1992 140.473 23.0205 140.719 22.7997C140.975 22.5684 141.165 22.3055 141.288 22.0111C141.411 21.7167 141.472 21.4066 141.472 21.0806C141.472 20.66 141.354 20.3131 141.119 20.0397C140.893 19.7558 140.591 19.514 140.212 19.3142C139.843 19.1145 139.418 18.941 138.937 18.7938C138.455 18.6466 137.963 18.4889 137.461 18.3206C136.959 18.1524 136.468 17.9579 135.986 17.7371C135.505 17.5163 135.074 17.2377 134.695 16.9012C134.326 16.5648 134.024 16.1547 133.789 15.6711C133.563 15.1874 133.451 14.5986 133.451 13.9047C133.451 13.2844 133.574 12.6903 133.819 12.1225C134.076 11.5548 134.439 11.0553 134.91 10.6243C135.392 10.1932 135.981 9.85147 136.678 9.59913C137.384 9.33628 138.189 9.20485 139.09 9.20485C140.125 9.20485 141.057 9.37308 141.887 9.70953C142.727 10.046 143.444 10.5086 144.038 11.0974L143.378 12.2172Z" fill="#1E88E5"/>
<path d="M129.893 2.20244V25.4808H126.881V2.20244H129.893Z" fill="#1E88E5"/>
<path d="M120.894 15.6868C120.894 15.077 120.807 14.5145 120.633 13.9993C120.469 13.4841 120.223 13.0373 119.895 12.6588C119.568 12.2802 119.168 11.9859 118.697 11.7756C118.225 11.5653 117.683 11.4601 117.068 11.4601C115.808 11.4601 114.814 11.8334 114.087 12.5799C113.37 13.3264 112.914 14.3621 112.719 15.6868H120.894ZM123.368 23.194C122.999 23.6356 122.574 24.0193 122.093 24.3453C121.611 24.6607 121.099 24.9183 120.556 25.1181C120.013 25.3178 119.45 25.465 118.866 25.5597C118.292 25.6543 117.724 25.7016 117.16 25.7016C116.084 25.7016 115.086 25.5176 114.164 25.1496C113.252 24.7711 112.458 24.2244 111.782 23.5094C111.116 22.7839 110.593 21.8902 110.214 20.8283C109.845 19.7558 109.661 18.5257 109.661 17.1378C109.661 16.0233 109.83 14.9876 110.168 14.0309C110.506 13.0636 110.988 12.2224 111.613 11.5075C112.248 10.7925 113.021 10.23 113.933 9.81993C114.845 9.40988 115.869 9.20485 117.006 9.20485C117.959 9.20485 118.835 9.36782 119.634 9.69376C120.443 10.0092 121.14 10.4718 121.724 11.0816C122.308 11.6915 122.764 12.4432 123.092 13.3369C123.43 14.2306 123.599 15.2505 123.599 16.3965C123.599 16.8697 123.548 17.1904 123.445 17.3586C123.343 17.5163 123.153 17.5952 122.877 17.5952H112.642C112.673 18.552 112.806 19.3878 113.042 20.1028C113.277 20.8072 113.6 21.396 114.01 21.8692C114.43 22.3423 114.927 22.6945 115.5 22.9259C116.074 23.1572 116.714 23.2728 117.421 23.2728C118.087 23.2728 118.661 23.194 119.142 23.0363C119.634 22.8785 120.054 22.7103 120.402 22.5316C120.761 22.3423 121.058 22.1688 121.294 22.0111C121.54 21.8534 121.755 21.7746 121.939 21.7746C122.185 21.7746 122.375 21.8692 122.508 22.0584L123.368 23.194Z" fill="#1E88E5"/>
<path d="M106.188 2.83325V25.4808H102.915V15.2768H91.4052V25.4808H88.1166V2.83325H91.4052V12.8322H102.915V2.83325H106.188Z" fill="#1E88E5"/>
<path d="M81.2536 25.7332C79.9936 25.7332 79.0203 25.3704 78.3339 24.6449C77.6578 23.9195 77.3197 22.8838 77.3197 21.538V11.9491H75.5064C75.3323 11.9491 75.1837 11.8965 75.0608 11.7914C74.9481 11.6757 74.8918 11.5075 74.8918 11.2867V10.0408L77.4273 9.67801L78.1034 4.89932C78.1444 4.72058 78.2212 4.58389 78.3339 4.48926C78.4569 4.38412 78.6105 4.33155 78.7949 4.33155H80.3163V9.70956H84.7419V11.9491H80.3163V21.333C80.3163 21.9638 80.4648 22.437 80.7619 22.7524C81.0692 23.0573 81.4585 23.2098 81.9298 23.2098C82.2064 23.2098 82.442 23.173 82.6367 23.0994C82.8416 23.0258 83.0157 22.9469 83.1591 22.8628C83.3026 22.7682 83.4255 22.684 83.5279 22.6104C83.6304 22.5368 83.7226 22.5 83.8045 22.5C83.907 22.5 83.9838 22.5263 84.035 22.5789C84.0965 22.621 84.158 22.6946 84.2195 22.7997L85.1107 24.2822C84.619 24.7448 84.035 25.1023 83.3589 25.3546C82.6828 25.607 81.981 25.7332 81.2536 25.7332Z" fill="#1E88E5"/>
<path d="M70.5617 15.6868C70.5617 15.077 70.4746 14.5145 70.3005 13.9993C70.1365 13.4841 69.8907 13.0373 69.5628 12.6588C69.235 12.2802 68.8355 11.9859 68.3642 11.7756C67.893 11.5653 67.35 11.4601 66.7353 11.4601C65.4753 11.4601 64.4815 11.8334 63.7542 12.5799C63.0371 13.3264 62.5812 14.3621 62.3865 15.6868H70.5617ZM73.0358 23.194C72.667 23.6356 72.2418 24.0193 71.7603 24.3453C71.2788 24.6607 70.7666 24.9183 70.2236 25.1181C69.6807 25.3178 69.1172 25.465 68.5333 25.5597C67.9596 25.6543 67.391 25.7016 66.8275 25.7016C65.7519 25.7016 64.753 25.5176 63.831 25.1496C62.9192 24.7711 62.1253 24.2244 61.4491 23.5094C60.7832 22.7839 60.2608 21.8902 59.8817 20.8283C59.5129 19.7558 59.3285 18.5257 59.3285 17.1378C59.3285 16.0233 59.4975 14.9876 59.8356 14.0309C60.1737 13.0636 60.6552 12.2224 61.2801 11.5075C61.9153 10.7925 62.6887 10.23 63.6005 9.81993C64.5123 9.40988 65.5367 9.20485 66.6739 9.20485C67.6266 9.20485 68.5025 9.36782 69.3016 9.69376C70.1109 10.0092 70.8076 10.4718 71.3915 11.0816C71.9754 11.6915 72.4313 12.4432 72.7592 13.3369C73.0972 14.2306 73.2663 15.2505 73.2663 16.3965C73.2663 16.8697 73.215 17.1904 73.1126 17.3586C73.0102 17.5163 72.8206 17.5952 72.544 17.5952H62.3097C62.3404 18.552 62.4736 19.3878 62.7092 20.1028C62.9449 20.8072 63.2676 21.396 63.6773 21.8692C64.0974 22.3423 64.5942 22.6945 65.1679 22.9259C65.7416 23.1572 66.3819 23.2728 67.0888 23.2728C67.7547 23.2728 68.3284 23.194 68.8099 23.0363C69.3016 22.8785 69.7216 22.7103 70.07 22.5316C70.4285 22.3423 70.7256 22.1688 70.9612 22.0111C71.2071 21.8534 71.4222 21.7746 71.6066 21.7746C71.8525 21.7746 72.042 21.8692 72.1752 22.0584L73.0358 23.194Z" fill="#1E88E5"/>
<path d="M49.6911 14.4882C50.5209 14.4882 51.2482 14.3778 51.8732 14.157C52.5083 13.9362 53.0359 13.6261 53.4559 13.2265C53.8862 12.8165 54.2089 12.3328 54.4241 11.7756C54.6392 11.2078 54.7468 10.5822 54.7468 9.89878C54.7468 8.52142 54.3267 7.43846 53.4867 6.6499C52.6569 5.86134 51.3917 5.46705 49.6911 5.46705H46.2796V14.4882H49.6911ZM49.6911 2.83325C51.1048 2.83325 52.3342 3.00148 53.3791 3.33793C54.4241 3.67439 55.2897 4.15278 55.9761 4.77312C56.6625 5.38294 57.1696 6.12419 57.4974 6.99687C57.8355 7.86954 58.0045 8.83685 58.0045 9.89878C58.0045 10.9607 57.8253 11.9385 57.4667 12.8322C57.1081 13.7154 56.5805 14.4777 55.8839 15.1191C55.1873 15.7604 54.3165 16.2599 53.2715 16.6173C52.2368 16.9643 51.0433 17.1378 49.6911 17.1378H46.2796V25.4808H43.0065V2.83325H49.6911Z" fill="#1E88E5"/>
</svg>
