<svg width="25" height="25" viewBox="0 0 25 25" fill="none" xmlns="http://www.w3.org/2000/svg">
<path d="M21.1778 3.6544C19.5676 2.84554 17.8779 2.94312 16.7203 3.128C14.5067 3.47979 14.0074 4.35628 12.2586 4.37596C10.3213 4.39822 9.52523 2.92086 6.97548 3.02957C6.559 3.04754 3.46814 3.44812 1.49557 6.02537C1.19796 6.41396 -0.332707 8.50161 0.0657422 11.1191C0.294482 12.623 1.04465 13.5431 2.50481 15.3337C3.00984 15.9543 3.4665 16.4559 6.79429 19.4611L6.89268 19.5467C7.45428 18.9475 7.95849 18.4417 8.24954 18.0762C8.6529 17.5626 8.93576 17.2348 9.13908 16.6082C9.13908 16.6082 9.29567 16.3189 9.30305 15.6119C9.30817 15.5262 9.30487 15.4402 9.29321 15.3551L9.17351 15.35C9.11448 15.35 9.06857 15.35 8.98413 15.3397C8.81753 15.3184 8.65297 15.2823 8.49221 15.2319C8.16427 15.1463 7.82239 14.8998 7.48133 14.4701C7.27935 14.2119 7.15398 13.8978 7.1206 13.5662C7.00418 12.7265 7.25751 11.9399 7.85847 11.4144C8.24346 11.0792 8.72877 10.8953 9.23008 10.8948C9.69524 10.9014 10.1457 11.0661 10.5132 11.3639C10.839 11.6266 11.0864 11.9808 11.2264 12.385C11.2871 12.5613 11.4773 13.1374 11.2748 13.7503C11.1865 14.0563 11.036 14.3389 10.8337 14.5788C10.7705 14.6587 10.7023 14.7342 10.6296 14.8048C10.6025 14.8305 10.5476 14.8732 10.5386 14.8827C10.5296 14.8921 10.5091 14.9058 10.4984 14.9126C10.4926 14.9161 10.4871 14.9201 10.482 14.9246C10.4806 14.9275 10.4799 14.9308 10.4799 14.934C10.4799 14.9373 10.4806 14.9405 10.482 14.9434C10.482 14.9537 10.482 14.9546 10.4886 14.9794C10.4992 15.0384 10.5041 15.0496 10.5123 15.0915C10.5205 15.1335 10.5312 15.1865 10.5369 15.2242C10.5558 15.3603 10.5599 15.4116 10.5714 15.5589C10.5833 15.8674 10.5618 16.1763 10.5074 16.4799C10.4628 16.7897 10.3764 17.0914 10.2508 17.376C10.0765 17.7918 9.84412 18.1783 9.5613 18.523C9.15138 19.004 9.27436 18.8465 8.7185 19.503C8.48976 19.7735 8.34874 19.9738 8.0208 20.3068C7.97735 20.3504 7.97161 20.3598 7.89454 20.4386C9.9245 22.2463 10.482 22.6161 11.4002 22.8352C12.0241 22.9825 13.4064 23.199 14.874 22.6204C15.8939 22.2181 16.4727 21.7841 17.7049 20.573L17.445 20.3102C17.1171 19.9772 16.9769 19.7769 16.7473 19.5065C16.1915 18.85 16.3128 19.0075 15.9053 18.5264C15.622 18.182 15.3893 17.7954 15.215 17.3795C15.0886 17.0984 15.0006 16.8002 14.9535 16.4935C14.8995 16.19 14.8781 15.8811 14.8895 15.5726C14.901 15.4253 14.9051 15.374 14.9248 15.2379C14.9297 15.2002 14.9387 15.1523 14.9486 15.1052C14.9584 15.0581 14.9617 15.0521 14.9732 14.9931C14.9773 14.9683 14.9773 14.9674 14.9789 14.9571C14.9803 14.9542 14.981 14.951 14.981 14.9477C14.981 14.9445 14.9803 14.9412 14.9789 14.9383C14.9741 14.9338 14.9689 14.9298 14.9633 14.9263C14.9519 14.9195 14.9355 14.9058 14.9232 14.8964C14.9109 14.8869 14.8584 14.8441 14.8322 14.8185C14.7591 14.7479 14.6907 14.6725 14.6272 14.5925C14.4253 14.3523 14.2749 14.0698 14.1861 13.7639C13.9836 13.1511 14.1738 12.575 14.2345 12.3987C14.3744 11.9942 14.6222 11.64 14.9486 11.3776C15.316 11.0797 15.7665 10.915 16.2316 10.9085C16.7329 10.9092 17.2182 11.093 17.6033 11.4281C18.2034 11.9536 18.4567 12.7402 18.3411 13.5799C18.3072 13.9115 18.1816 14.2255 17.9796 14.4838C17.6385 14.9118 17.2999 15.1566 16.9695 15.2456C16.8087 15.2959 16.6442 15.332 16.4776 15.3534C16.3956 15.3611 16.3472 15.3603 16.2882 15.3637L16.1685 15.3688C16.1573 15.4539 16.154 15.5399 16.1587 15.6256C16.1628 16.3326 16.3186 16.6219 16.3186 16.6219C16.5219 17.2485 16.8047 17.5772 17.2089 18.0899C17.5 18.4485 18.0739 19.0434 18.6322 19.646C20.8901 17.3658 20.663 17.7492 21.7329 16.5269C23.2849 14.7551 24.7122 13.2247 24.9615 10.9633C25.2746 8.10017 23.6489 4.8998 21.1778 3.6544Z" fill="#1E88E5"/>
</svg>
