<svg width="103" height="103" viewBox="0 0 103 103" fill="none" xmlns="http://www.w3.org/2000/svg">
<path d="M40.1793 79.6363C42.1064 79.6364 43.669 81.1816 43.6692 83.0869C43.6692 83.4995 43.5959 83.8956 43.4615 84.2623H56.5029C56.4569 84.0388 56.4333 83.8068 56.4333 83.5698C56.4336 81.6647 57.9954 80.1205 59.9222 80.1202C61.8492 80.1203 63.4118 81.6646 63.4121 83.5698C63.4121 84.8422 62.715 85.9535 61.6783 86.5517C62.7149 87.1498 63.412 88.2603 63.4121 89.5325C63.4121 91.4379 61.8494 92.983 59.9222 92.9831C57.9952 92.9828 56.4334 91.4378 56.4333 89.5325C56.4333 89.1199 56.5066 88.7239 56.641 88.3571H43.5996C43.6456 88.5805 43.6692 88.8118 43.6692 89.0486C43.6692 90.9541 42.1065 92.4992 40.1793 92.4992C38.2523 92.4989 36.6904 90.954 36.6904 89.0486C36.6906 87.7767 37.387 86.666 38.4232 86.0678C37.3868 85.4696 36.6894 84.359 36.6894 83.0869C36.6895 81.1816 38.2522 79.6365 40.1793 79.6363Z" fill="#C9E2F8"/>
<path fill-rule="evenodd" clip-rule="evenodd" d="M76.8214 43.4972C81.3203 43.0403 90.7282 45.836 94.7357 59.6777C98.1107 59.9634 100.098 61.5246 101.131 63.4992C102.186 65.5182 102.184 67.8563 101.873 69.4206C101.852 70.9142 101.234 76.3879 98.9404 87.4418C97.7253 93.2967 94.3786 96.9769 90.6974 99.1777C87.0386 101.365 83.0485 102.095 80.4615 102.095H21.5926C19.0057 102.095 15.0156 101.365 11.3567 99.1777C7.67549 96.9769 4.32885 93.2968 3.11375 87.4418C0.81982 76.3879 0.201775 70.9142 0.181291 69.4206C-0.13017 67.8563 -0.132327 65.5182 0.923226 63.4992C1.95653 61.5232 3.94613 59.9608 7.32544 59.6767C11.3331 45.8355 20.742 43.0403 25.2408 43.4972H26.271C26.2848 43.4967 26.2985 43.497 26.3123 43.4972H75.7418C75.7553 43.497 75.7687 43.4967 75.7821 43.4972H76.8214ZM93.9414 61.1121C89.424 60.9904 87.4434 61.2185 86.0331 61.9146C85.3346 62.2595 84.7402 62.7376 84.023 63.4287C83.6629 63.7757 83.2818 64.167 82.8406 64.6172C82.4018 65.0648 81.9091 65.5647 81.3396 66.1172L81.3335 66.1232L76.8265 70.3904C75.4585 71.7751 71.0166 74.1491 63.2882 74.1041C56.1168 74.0623 52.2806 74.0151 51.0271 73.9942C49.7738 74.0151 45.9377 74.0623 38.766 74.1041C31.0375 74.1491 26.5957 71.7751 25.2277 70.3904L20.7206 66.1232L20.7146 66.1172C20.145 65.5647 19.6524 65.0649 19.2135 64.6172C18.7722 64.167 18.3913 63.7758 18.0311 63.4287C17.3139 62.7376 16.7196 62.2595 16.021 61.9146C14.6108 61.2184 12.6303 60.9904 8.11274 61.1121C4.75077 61.2028 3.0643 62.5914 2.23169 64.1837C1.3649 65.8417 1.35872 67.8497 1.63996 69.1958C1.65024 69.2451 1.65604 69.2956 1.65609 69.346C1.65609 70.5533 2.22306 75.8835 4.55932 87.1414C5.67932 92.5384 8.73805 95.8918 12.1148 97.9105C15.5134 99.9423 19.2337 100.618 21.5926 100.618H80.4615C82.8204 100.618 86.5408 99.9423 89.9394 97.9105C93.316 95.8918 96.3748 92.5383 97.4948 87.1414C99.8311 75.8835 100.398 70.5533 100.398 69.346C100.398 69.2956 100.404 69.2451 100.414 69.1958C100.695 67.8497 100.689 65.8417 99.8224 64.1837C98.9899 62.5914 97.3033 61.2029 93.9414 61.1121ZM27.9998 44.973C31.8064 49.4124 37.4222 59.3276 37.024 72.592C37.5794 72.6168 38.1569 72.6308 38.7569 72.6273C45.535 72.5877 49.3265 72.5433 50.772 72.5214C50.7946 72.5198 50.8174 72.5159 50.8406 72.5164C50.8939 72.5174 50.956 72.5172 51.0271 72.5184C51.0981 72.5172 51.1603 72.5174 51.2136 72.5164C51.2364 72.5159 51.2588 72.5198 51.2811 72.5214C52.726 72.5433 56.5178 72.5877 63.2972 72.6273C63.8965 72.6308 64.4733 72.6168 65.0281 72.592C64.6299 59.3275 70.2477 49.4123 74.0543 44.973H27.9998ZM25.1319 44.969C21.4453 44.572 12.7849 46.7947 8.8819 59.6202C12.8426 59.5451 15.0034 59.7655 16.6752 60.591C17.5727 61.0342 18.2942 61.6327 19.0553 62.3662C19.4342 62.7313 19.833 63.1401 20.268 63.5839C20.704 64.0287 21.1831 64.5154 21.7357 65.0517L26.2428 69.3178L26.265 69.34C27.0858 70.1844 30.0801 71.9879 35.5513 72.4932C35.9522 58.5449 29.4708 48.4794 25.9978 44.973H25.2115C25.1852 44.973 25.1581 44.9718 25.1319 44.969ZM93.1793 59.6202C89.2763 46.795 80.617 44.5721 76.9303 44.969C76.9041 44.9718 76.877 44.973 76.8507 44.973H76.0563C72.5833 48.4793 66.1009 58.5447 66.5019 72.4932C71.9735 71.988 74.9683 70.1844 75.7892 69.34L75.8113 69.3178L80.3184 65.0517C80.871 64.5155 81.3502 64.0287 81.7861 63.5839C82.2211 63.1402 82.62 62.7313 82.9988 62.3662C83.7599 61.6328 84.4814 61.0341 85.3789 60.591C87.0517 59.7651 89.2141 59.5447 93.1793 59.6202Z" fill="#C9E2F8"/>
<path d="M51.3315 22.215C51.6018 21.6648 52.3867 21.665 52.6571 22.215L53.6248 24.1857C53.732 24.4039 53.9398 24.5557 54.1803 24.591L56.3517 24.9095C56.9558 24.9983 57.1973 25.7405 56.7609 26.1676L55.1863 27.7089C55.0134 27.8783 54.934 28.1215 54.9746 28.3601L55.3456 30.5335C55.4485 31.137 54.8143 31.5958 54.273 31.3097L52.3396 30.2886C52.1238 30.1746 51.8658 30.1746 51.65 30.2886L49.7156 31.3097C49.1743 31.5956 48.5402 31.1369 48.643 30.5335L49.014 28.3601C49.0546 28.1216 48.9761 27.8783 48.8033 27.7089L47.2287 26.1676C46.7924 25.7406 47.033 24.9985 47.6369 24.9095L49.8083 24.591C50.0487 24.5557 50.2566 24.4038 50.3638 24.1857L51.3315 22.215Z" fill="#C9E2F8"/>
<path d="M28.2508 7.43675C28.5212 6.88661 29.306 6.88675 29.5765 7.43675L30.5442 9.40751C30.6514 9.62566 30.8592 9.77744 31.0996 9.81276L33.271 10.1313C33.8751 10.22 34.1167 10.9623 33.6803 11.3894L32.1057 12.9307C31.9327 13.1 31.8534 13.3433 31.894 13.5819L32.265 15.7553C32.3678 16.3588 31.7337 16.8176 31.1924 16.5315L29.2589 15.5103C29.0432 15.3963 28.7852 15.3964 28.5694 15.5103L26.6349 16.5315C26.0937 16.8174 25.4596 16.3587 25.5623 15.7553L25.9333 13.5819C25.9739 13.3434 25.8955 13.1 25.7226 12.9307L24.148 11.3894C23.7117 10.9623 23.9524 10.2202 24.5563 10.1313L26.7277 9.81276C26.9681 9.77745 27.1759 9.62557 27.2831 9.40751L28.2508 7.43675Z" fill="#C9E2F8"/>
<path d="M70.767 0.412554C71.0373 -0.137588 71.8222 -0.137448 72.0926 0.412554L73.0603 2.38332C73.1675 2.60147 73.3753 2.75324 73.6158 2.78856L75.7871 3.10711C76.3913 3.19584 76.6328 3.93807 76.1964 4.36517L74.6218 5.90651C74.4488 6.07584 74.3695 6.31909 74.4101 6.55771L74.7811 8.7311C74.8839 9.33457 74.2498 9.79336 73.7085 9.50731L71.7751 8.48614C71.5593 8.37214 71.3013 8.3722 71.0855 8.48614L69.1511 9.50731C68.6098 9.79322 67.9757 9.33448 68.0785 8.7311L68.4494 6.55771C68.4901 6.31917 68.4116 6.07585 68.2388 5.90651L66.6642 4.36517C66.2279 3.93814 66.4685 3.19605 67.0724 3.10711L69.2438 2.78856C69.4842 2.75325 69.6921 2.60137 69.7992 2.38332L70.767 0.412554Z" fill="#C9E2F8"/>
</svg>
