<svg width="86" height="63" viewBox="0 0 86 63" fill="none" xmlns="http://www.w3.org/2000/svg">
  <path d="M1 43C1 44.8565 1.98334 46.637 3.73367 47.9497C5.48401 49.2625 7.85798 50 10.3333 50L65.6667 50C66.0994 50 66.5205 50.1404 66.8667 50.4L81.8 61.6C83.1185 62.5889 85 61.6481 85 60L85 8C85 6.14348 84.0167 4.36301 82.2663 3.05025C80.516 1.7375 78.142 1 75.6667 1L10.3333 1C7.85798 1 5.48401 1.7375 3.73367 3.05025C1.98334 4.36301 1 6.14348 1 8L1 43Z" stroke="#C9E2F8" stroke-linecap="round" stroke-linejoin="round" />
</svg>