<svg width="13" height="12" viewBox="0 0 13 12" fill="none" xmlns="http://www.w3.org/2000/svg">
  <path d="M6.04405 1.17371C6.23057 0.795828 6.76943 0.795828 6.95595 1.17371L8.31306 3.92305C8.38706 4.07298 8.53004 4.17694 8.69547 4.20112L11.7311 4.64483C12.148 4.70576 12.3142 5.21823 12.0124 5.51221L9.81659 7.65089C9.69665 7.76771 9.64191 7.93608 9.67021 8.1011L10.1883 11.1219C10.2596 11.5373 9.82352 11.8541 9.45048 11.6579L6.73667 10.2307C6.58851 10.1528 6.41149 10.1528 6.26333 10.2307L3.54952 11.6579C3.17648 11.8541 2.74044 11.5373 2.81169 11.1219L3.32979 8.1011C3.35809 7.93608 3.30335 7.76771 3.18341 7.65089L0.987633 5.5122C0.685806 5.21823 0.851967 4.70576 1.26887 4.64483L4.30453 4.20112C4.46996 4.17694 4.61294 4.07298 4.68694 3.92305L6.04405 1.17371Z" fill="#C9E2F8" />
</svg>